<?xml version="1.0" encoding="iso-8859-1"?>
<!-- Generator: Adobe Illustrator 19.0.0, SVG Export Plug-In . SVG Version: 6.00 Build 0)  -->
<svg version="1.1" id="Capa_1" xmlns="http://www.w3.org/2000/svg" xmlns:xlink="http://www.w3.org/1999/xlink" x="0px" y="0px"
	 viewBox="0 0 511.984 511.984" style="enable-background:new 0 0 511.984 511.984;" xml:space="preserve">
<g>
	<g>
		<path d="M485.95,410.377c-1.941-3.136-5.376-5.056-9.067-5.056H10.665c-3.691,0-7.125,1.92-9.067,5.056
			c-1.941,3.136-2.133,7.061-0.469,10.368l3.648,7.296c12.736,25.472,38.315,41.28,66.773,41.28h344.448
			c28.459,0,54.059-15.808,66.773-41.28l3.648-7.296C488.083,417.46,487.891,413.513,485.95,410.377z M415.998,447.988H71.55
			c-17.088,0-32.725-7.979-42.688-21.333h429.824C448.745,439.988,433.086,447.988,415.998,447.988z"/>
	</g>
</g>
<g>
	<g>
		<path d="M510.889,274.932c-5.056-29.611-28.224-53.675-57.664-59.925c-16.555-3.499-33.216-1.429-47.893,5.675v-18.027
			c0-17.643-14.357-32-32-32h-256c-17.643,0-32,14.357-32,32v138.667c0,34.923,19.307,67.115,50.389,84.032
			c1.557,0.853,3.328,1.301,5.099,1.301h209.024c1.771,0,3.52-0.448,5.099-1.301c27.029-14.699,45.163-40.981,49.429-70.549
			c29.845,14.976,68.395,6.976,90.048-18.688C508.649,319.263,514.643,296.969,510.889,274.932z M478.099,322.356
			c-18.539,21.995-54.315,24.896-76.309,5.099c-3.136-2.816-7.616-3.563-11.477-1.813c-3.84,1.728-6.315,5.547-6.315,9.749v5.931
			c0,26.24-14.101,50.517-36.971,64H143.635c-22.869-13.483-36.971-37.76-36.971-64V202.655c0-5.888,4.779-10.667,10.667-10.667h256
			c5.888,0,10.667,4.779,10.667,10.667v37.952c0,4.224,2.475,8.021,6.336,9.728c3.84,1.749,8.363,1.003,11.477-1.813
			c12.885-11.648,30.037-16.256,46.976-12.651c20.629,4.395,37.525,21.909,41.067,42.645
			C492.585,294.58,488.403,310.132,478.099,322.356z"/>
	</g>
</g>
<g>
	<g>
		<path d="M326.761,130.441c-4.373-3.627-6.763-8.299-6.763-13.12c0-4.821,2.411-9.493,6.805-13.141
			c9.323-7.765,14.443-18.261,14.443-29.525c0-11.285-5.12-21.76-14.443-29.525c-4.523-3.776-11.243-3.136-15.019,1.365
			c-3.776,4.523-3.157,11.243,1.365,15.019c4.373,3.627,6.763,8.277,6.763,13.12c0,4.843-2.411,9.515-6.805,13.163
			c-9.301,7.765-14.443,18.261-14.443,29.525c0,11.285,5.141,21.781,14.443,29.525c2.005,1.664,4.416,2.475,6.827,2.475
			c3.051,0,6.08-1.301,8.192-3.84C331.902,140.937,331.283,134.217,326.761,130.441z"/>
	</g>
</g>
<g>
	<g>
		<path d="M262.697,130.463c-4.373-3.627-6.763-8.277-6.763-13.12s2.411-9.515,6.784-13.163
			c9.323-7.765,14.443-18.261,14.443-29.525c0-11.285-5.12-21.76-14.443-29.525c-4.501-3.776-11.243-3.136-15.019,1.365
			c-3.776,4.523-3.157,11.243,1.365,15.019c4.373,3.627,6.763,8.277,6.763,13.12c0,4.843-2.411,9.515-6.784,13.163
			c-9.323,7.765-14.443,18.261-14.443,29.525c0,11.285,5.12,21.76,14.443,29.525c1.984,1.664,4.395,2.475,6.805,2.475
			c3.051,0,6.08-1.323,8.213-3.84C267.838,140.959,267.219,134.239,262.697,130.463z"/>
	</g>
</g>
<g>
	<g>
		<path d="M198.761,130.441c-4.373-3.627-6.763-8.299-6.763-13.12c0-4.821,2.411-9.493,6.805-13.141
			c9.323-7.765,14.443-18.261,14.443-29.525c0-11.285-5.141-21.781-14.464-29.525c-4.523-3.776-11.264-3.136-15.019,1.365
			c-3.755,4.523-3.157,11.264,1.387,15.019c4.352,3.648,6.763,8.32,6.763,13.141c0,4.821-2.432,9.493-6.805,13.141
			c-9.301,7.765-14.443,18.261-14.443,29.525c0,11.285,5.141,21.781,14.443,29.525c2.005,1.664,4.416,2.475,6.827,2.475
			c3.051,0,6.08-1.301,8.192-3.84C203.902,140.959,203.283,134.217,198.761,130.441z"/>
	</g>
</g>
<g>
	<g>
		<path d="M437.331,266.655c-11.755,0-21.333,9.579-21.333,21.333s9.579,21.333,21.333,21.333c11.755,0,21.333-9.579,21.333-21.333
			S449.086,266.655,437.331,266.655z"/>
	</g>
</g>
<g>
</g>
<g>
</g>
<g>
</g>
<g>
</g>
<g>
</g>
<g>
</g>
<g>
</g>
<g>
</g>
<g>
</g>
<g>
</g>
<g>
</g>
<g>
</g>
<g>
</g>
<g>
</g>
<g>
</g>
</svg>
