<?xml version="1.0" encoding="iso-8859-1"?>
<!-- Generator: Adobe Illustrator 19.0.0, SVG Export Plug-In . SVG Version: 6.00 Build 0)  -->
<svg version="1.1" id="Capa_1" xmlns="http://www.w3.org/2000/svg" xmlns:xlink="http://www.w3.org/1999/xlink" x="0px" y="0px"
	 viewBox="0 0 512 512" style="enable-background:new 0 0 512 512;" xml:space="preserve">
	 <style>path, circle {fill: #006351;}</style>
<g>
	<g>
		<path d="M106.489,371.321c-13.367,0-24.241,10.875-24.241,24.241c0,13.366,10.875,24.241,24.241,24.241
			c13.366,0,24.24-10.875,24.24-24.241C130.729,382.196,119.854,371.321,106.489,371.321z M106.489,404.412
			c-4.879,0-8.849-3.97-8.849-8.849c0-4.879,3.97-8.849,8.849-8.849c4.879,0,8.848,3.97,8.848,8.849
			C115.337,400.441,111.368,404.412,106.489,404.412z"/>
	</g>
</g>
<g>
	<g>
		<path d="M491.791,403.258c11.143,0,20.209-9.065,20.209-20.208v-52.7c0-29.979-22.502-54.776-52.341-57.678l-12.576-1.223
			c-9.912-0.964-18.074-7.777-20.794-17.358l-13.978-49.247c-2.365-8.327-6.776-16.024-12.758-22.257
			c-2.942-3.067-7.815-3.169-10.881-0.224c-1.683,1.615-2.467,3.811-2.35,5.971c-0.093,0.478-0.145,0.97-0.145,1.475
			c0,61.905-50.364,112.27-112.27,112.27c-31.286,0-61.032-13.151-82.133-35.753h16.883c4.251,0,7.696-3.445,7.696-7.696
			c0-4.251-3.445-7.696-7.696-7.696h-32.631c-4.251,0-7.696,3.445-7.696,7.696v32.63c0,4.251,3.445,7.696,7.696,7.696
			c4.251,0,7.696-3.445,7.696-7.696v-11.128c23.75,23.666,56.166,37.339,90.185,37.339c61.864,0,113.585-44.235,125.211-102.735
			l12.364,43.56c4.461,15.717,17.851,26.894,34.112,28.475l12.576,1.223c21.913,2.131,38.439,20.341,38.439,42.358v52.7
			c0,2.656-2.16,4.816-4.817,4.816H432.85c-3.75-26.302-26.411-46.593-53.733-46.593c-27.322,0-49.983,20.291-53.733,46.593H185.692
			c-4.251,0-7.696,3.445-7.696,7.696c0,4.251,3.445,7.696,7.696,7.696h139.691c1.733,12.157,7.507,23.023,15.916,31.201H144.305
			c10.149-9.87,16.471-23.655,16.471-38.897c0-29.935-24.353-54.288-54.287-54.288c-27.322,0-49.983,20.291-53.733,46.593H20.209
			c-2.657,0-4.817-2.16-4.817-4.816V314.76c0-12.846,10.03-23.714,22.834-24.742l50.09-4.021
			c12.677-1.018,24.143-8.142,30.674-19.053l38.861-64.937c1.206-2.014,2.095-4.196,2.642-6.486l0.539-2.261
			c0.385-1.619,0.592-3.32,0.616-5.055c0.416-29.649,12.278-57.458,33.401-78.304c21.143-20.866,49.149-32.358,78.857-32.358
			c32.671,0,63.286,14.102,84.475,38.323h-18.784c-4.251,0-7.696,3.445-7.696,7.696c0,4.251,3.445,7.696,7.696,7.696h34.12
			c0.837,0.025,1.681-0.085,2.501-0.34c0.049-0.015,0.096-0.034,0.145-0.05c0.181-0.06,0.362-0.123,0.54-0.197
			c0.106-0.044,0.208-0.096,0.311-0.145c0.117-0.056,0.236-0.107,0.351-0.169c0.175-0.093,0.342-0.196,0.509-0.302
			c0.04-0.025,0.082-0.046,0.121-0.072c0.005-0.003,0.009-0.007,0.013-0.01c2.074-1.379,3.442-3.734,3.442-6.412v-34.36
			c0-4.251-3.445-7.696-7.696-7.696c-4.251,0-7.696,3.445-7.696,7.696v12.469c-23.884-25.053-57.062-39.523-92.352-39.523
			c-33.782,0-65.627,13.067-89.669,36.794c-24.019,23.704-37.507,55.328-37.98,89.044c-0.028,1.869-0.662,4.525-1.613,6.112
			l-38.863,64.94c-3.981,6.653-10.971,10.995-18.699,11.616l-50.09,4.021C16.25,276.339,0,293.947,0,314.758v68.293
			c0,11.143,9.066,20.208,20.209,20.208h32.546c1.733,12.157,7.507,23.023,15.916,31.201H7.696c-4.251,0-7.696,3.445-7.696,7.696
			c0,4.251,3.445,7.696,7.696,7.696h496.608c4.251,0,7.696-3.445,7.696-7.696c0-4.251-3.445-7.696-7.696-7.696h-87.37
			c8.409-8.179,14.183-19.045,15.916-31.202H491.791z M106.489,434.459c-21.448,0-38.897-17.449-38.897-38.897
			c0-21.447,17.449-38.897,38.897-38.897s38.896,17.449,38.896,38.897S127.937,434.459,106.489,434.459z M379.117,434.459
			c-21.448,0-38.897-17.449-38.897-38.897c0-21.447,17.449-38.897,38.897-38.897s38.897,17.449,38.897,38.897
			S400.565,434.459,379.117,434.459z"/>
	</g>
</g>
<g>
	<g>
		<path d="M379.117,371.321c-13.367,0-24.241,10.875-24.241,24.241c0,13.366,10.875,24.241,24.241,24.241
			c13.366,0,24.241-10.875,24.241-24.241C403.358,382.196,392.483,371.321,379.117,371.321z M379.117,404.412
			c-4.879,0-8.849-3.97-8.849-8.849c0-4.879,3.97-8.849,8.849-8.849c4.879,0,8.849,3.97,8.849,8.849
			C387.966,400.441,383.996,404.412,379.117,404.412z"/>
	</g>
</g>
<g>
	<g>
		<path d="M297.314,123.639c-3.038-2.973-7.911-2.921-10.884,0.115l-4.943,5.049v-11.272c0-4.251-3.445-7.696-7.696-7.696
			c-4.251,0-7.696,3.445-7.696,7.696v11.272l-4.943-5.049c-2.975-3.036-7.846-3.088-10.884-0.115
			c-3.037,2.974-3.088,7.846-0.115,10.884l15.942,16.283v20.429c0,4.251,3.445,7.696,7.696,7.696c4.251,0,7.696-3.445,7.696-7.696
			v-20.429l15.942-16.283C300.402,131.486,300.351,126.614,297.314,123.639z"/>
	</g>
</g>
<g>
	<g>
		<path d="M297.428,244.924l-15.942-16.282v-20.429c0-4.251-3.445-7.696-7.696-7.696c-4.251,0-7.696,3.445-7.696,7.696v20.429
			l-15.942,16.282c-2.973,3.037-2.922,7.909,0.115,10.884c3.037,2.973,7.908,2.92,10.884-0.115l4.943-5.049v11.272
			c0.001,4.251,3.447,7.696,7.697,7.696c4.251,0,7.696-3.445,7.696-7.696v-11.272l4.943,5.049c1.508,1.539,3.503,2.312,5.5,2.312
			c1.942,0,3.886-0.731,5.383-2.197C300.35,252.834,300.401,247.962,297.428,244.924z"/>
	</g>
</g>
<g>
	<g>
		<path d="M337.596,168.383l-6.825-1.832l9.823-5.528c3.704-2.084,5.017-6.777,2.933-10.482c-2.084-3.704-6.778-5.015-10.482-2.932
			l-9.822,5.528l1.975-6.784c1.188-4.08-1.157-8.352-5.238-9.541c-4.082-1.188-8.352,1.157-9.541,5.238l-6.37,21.877l-17.804,10.02
			c-3.704,2.084-5.016,6.777-2.932,10.482c1.413,2.51,4.024,3.922,6.714,3.922c1.279,0,2.574-0.319,3.768-0.99l17.804-10.02
			l22.007,5.907c0.668,0.179,1.34,0.266,2,0.266c3.396,0,6.505-2.266,7.427-5.703C344.135,173.705,341.7,169.485,337.596,168.383z"
			/>
	</g>
</g>
<g>
	<g>
		<path d="M264.499,195.018c-2.084-3.704-6.778-5.015-10.482-2.932l-17.804,10.02l-22.006-5.906
			c-4.105-1.103-8.326,1.332-9.428,5.437c-1.102,4.106,1.333,8.326,5.437,9.428l6.824,1.832l-9.823,5.528
			c-3.704,2.084-5.016,6.777-2.932,10.482c1.413,2.51,4.024,3.922,6.714,3.922c1.279,0,2.574-0.319,3.768-0.99l9.823-5.528
			l-1.976,6.785c-1.187,4.079,1.158,8.351,5.239,9.539c0.718,0.209,1.442,0.309,2.154,0.309c3.335,0,6.407-2.184,7.386-5.546
			l6.371-21.879l17.803-10.019C265.271,203.416,266.583,198.723,264.499,195.018z"/>
	</g>
</g>
<g>
	<g>
		<path d="M338.769,222.346l-9.477-6.104l6.921-1.422c4.162-0.857,6.844-4.926,5.989-9.089c-0.856-4.163-4.918-6.844-9.088-5.989
			l-22.32,4.586l-17.175-11.062c-3.572-2.3-8.336-1.272-10.638,2.303c-2.301,3.573-1.271,8.336,2.303,10.638l17.176,11.063
			l5.057,22.218c0.812,3.57,3.984,5.99,7.497,5.99c0.565,0,1.14-0.063,1.715-0.194c4.145-0.943,6.74-5.068,5.797-9.211l-1.568-6.89
			l9.476,6.103c1.29,0.83,2.733,1.227,4.161,1.227c2.528,0,5.006-1.246,6.477-3.529
			C343.373,229.411,342.343,224.648,338.769,222.346z"/>
	</g>
</g>
<g>
	<g>
		<path d="M262.529,173.242l-17.175-11.061l-5.056-22.219c-0.943-4.144-5.071-6.736-9.212-5.797
			c-4.145,0.944-6.74,5.068-5.797,9.212l1.568,6.891l-9.478-6.104c-3.57-2.299-8.335-1.272-10.637,2.304
			c-2.301,3.573-1.27,8.335,2.304,10.637l9.476,6.103l-6.921,1.422c-4.163,0.854-6.845,4.923-5.99,9.086
			c0.749,3.641,3.953,6.149,7.531,6.149c0.513,0,1.034-0.052,1.557-0.159l22.321-4.586l17.176,11.062
			c1.289,0.83,2.732,1.227,4.16,1.227c2.528,0,5.006-1.246,6.477-3.53C267.134,180.306,266.103,175.544,262.529,173.242z"/>
	</g>
</g>
<g>
	<g>
		<circle cx="42.701" cy="315.949" r="7.696"/>
	</g>
</g>
<g>
	<g>
		<circle cx="465.32" cy="315.949" r="7.696"/>
	</g>
</g>
<g>
</g>
<g>
</g>
<g>
</g>
<g>
</g>
<g>
</g>
<g>
</g>
<g>
</g>
<g>
</g>
<g>
</g>
<g>
</g>
<g>
</g>
<g>
</g>
<g>
</g>
<g>
</g>
<g>
</g>
</svg>
