<?xml version="1.0"?>
<svg xmlns="http://www.w3.org/2000/svg" viewBox="0 0 512 512"><style>path, circle {fill: #006351;}</style><g id="outline_create" data-name="outline create"><path d="M353.566,208.155l-36.6-7.307-18.1-30.167A22.111,22.111,0,0,0,280,160H201.625a25.128,25.128,0,0,0-21.437,12.138l-17.01,28.348-68.062,7.563A8,8,0,0,0,88,216v40a8,8,0,0,0,8,8h17.376a24,24,0,0,0,45.248,0H289.376a24,24,0,0,0,45.858-1.979l13.141-4.38A16.98,16.98,0,0,0,360,241.513V216A8,8,0,0,0,353.566,208.155Zm-68.421-29.242L297.8,200H248V176h32A6.03,6.03,0,0,1,285.145,178.913Zm-91.238,1.457a9.046,9.046,0,0,1,7.718-4.37H232v24H182.129ZM176,216h56v32H176Zm-72,7.16,56-6.222V248h-1.376a24,24,0,0,0-45.248,0H104ZM136,264a8,8,0,1,1,8-8A8.009,8.009,0,0,1,136,264Zm176,0a8,8,0,1,1,8-8A8.009,8.009,0,0,1,312,264Zm32-22.487a1,1,0,0,1-.685.949l-9.651,3.217A23.995,23.995,0,0,0,289.376,248H248V216h63.136L344,222.561Z"/><path d="M581.657,525.088,417.608,361.04a8,8,0,0,0-11.314,0l-5.655,5.655L387,353.057A206.984,206.984,0,0,0,432,224c0-114.691-93.309-208-208-208S16,109.309,16,224s93.309,208,208,208a206.984,206.984,0,0,0,129.057-45L366.7,400.639l-5.656,5.655a8,8,0,0,0,0,11.314L525.088,581.657a8,8,0,0,0,11.314,0L581.657,536.4A8,8,0,0,0,581.657,525.088ZM224,416C118.131,416,32,329.869,32,224S118.131,32,224,32s192,86.131,192,192a191.035,191.035,0,0,1-40.39,117.667L364.2,330.261A175.087,175.087,0,0,0,400,224c0-97.047-78.953-176-176-176S48,126.953,48,224s78.953,176,176,176a175.087,175.087,0,0,0,106.261-35.8l11.406,11.406A191.037,191.037,0,0,1,224,416Zm129.918-50.765L342.6,353.92q5.91-5.4,11.316-11.316l11.315,11.315Q359.813,359.808,353.918,365.235ZM224,384c-88.225,0-160-71.776-160-160S135.775,64,224,64s160,71.776,160,160S312.225,384,224,384Zm141.233-7.45q5.873-5.44,11.316-11.317l12.776,12.776-11.316,11.316ZM530.745,564.687,378.01,411.951l5.626-5.626.031-.028,22.63-22.63c.008-.009.015-.018.023-.026l5.631-5.631L564.687,530.745Z"/></g></svg>
