<svg enable-background="new 0 0 510.009 510.009" viewBox="0 0 510.009 510.009" xmlns="http://www.w3.org/2000/svg"><style>path, circle {fill: #006351;}</style><g><g transform="translate(-1676 -8279)"><g id="Lineboard14" transform="matrix(.867 0 0 .867 431.558 828.876)"><g><g transform="matrix(1.151 0 0 1.151 -493.523 -937.235)"><path clip-rule="evenodd" d="m2120.857 8618.16c0-.808-.589-29.961-1.177-31.857-3.334-10.64-13.274-18.374-25.001-18.374-11.737 0-21.678 7.734-25.001 18.374-.589 1.896-1.178 31.05-1.178 31.857 0 9.921-8.044 17.965-17.965 17.965h-212.246c-9.921 0-17.965-8.044-17.965-17.965 0-.808-.589-29.961-1.178-31.857-3.323-10.64-13.264-18.374-25.001-18.374-11.727 0-21.668 7.734-25.001 18.374-.589 1.896-1.178 31.05-1.178 31.857 0 9.921-8.044 17.965-17.965 17.965 0 0-22.396 0-32.616 0-9.931 0-18.983-5.668-23.314-14.601-2.795-5.769-7.296-15.051-7.296-15.051-1.557-3.204-9.781-18.145-10.26-24.103 0 0-1.377-18.364-.898-25.97.848-13.284 4.611-22.925 4.611-22.925.14-.39.299-.759.469-1.128 7.316-15.919 21.887-27.985 39.972-31.618 29.283-5.879 87.1-14.202 106.272-16.907l27.626-29.603c13.344-14.281 32.008-22.396 51.559-22.396h149.737c16.398 0 31.988 7.156 42.677 19.592l19.662 22.854h14.262c14.332 0 28.075 5.689 38.206 15.829 9.731 9.731 15.37 22.796 15.799 36.509.01.18.01.37.01.549l.02 33.115c0 .25 0 .51-.02.769l-.868 20.67c-.27 6.218-8.743 21.558-10.3 24.762 0 0-4.501 9.282-7.296 15.051-4.332 8.933-13.384 14.601-23.315 14.601-2.854 0-5.878 0-5.878 0-9.92.001-17.965-8.043-17.965-17.964zm-70.263-19.241h-212.365c.04 2.435.06 18.434.06 19.241h212.246c0-.807.02-16.806.059-19.241zm-300.523 0h-46.998l7.156 14.761c1.337 2.745 4.112 4.48 7.156 4.48h32.616c0-.807.02-16.806.07-19.241zm408.942 0h-20.26c.05 2.435.07 18.434.07 19.241h5.878c3.044 0 5.819-1.735 7.156-4.48zm-22.247-18.135c.659-.07 30.89.17 30.89.17l.878-20.67-.02-33.116c-.29-9.151-4.052-17.875-10.54-24.372-6.767-6.757-15.949-10.56-25.51-10.56h-22.506s-14.332-16.667-25.031-29.113c-7.286-8.463-17.895-13.333-29.063-13.333h-149.737c-14.572 0-28.484 6.048-38.425 16.697-13.863 14.851-31.958 34.232-31.958 34.232s-76.451 10.58-111.542 17.626c-12.296 2.465-22.207 10.68-27.177 21.498 0 0-2.824 7.445-3.473 17.695-.439 6.847.878 23.415.878 23.415s56.969-.24 57.627-.17c5.649-17.865 22.366-30.82 42.088-30.82 19.721 0 36.439 12.955 42.098 30.82.649-.07 215.689-.07 216.338 0 5.659-17.865 22.376-30.82 42.098-30.82 19.721.001 36.438 12.956 42.087 30.821z" fill-rule="evenodd"/></g><g transform="matrix(.979 0 0 .979 -1418.65 -549.051)"><g><path clip-rule="evenodd" d="m3396.75 9635.589c10.28-1.597 17.865-10.459 17.865-20.858v-2.396c0-5.271-1.966-10.351-5.519-14.243l-30.301-33.174c-4.002-4.393-9.661-6.888-15.589-6.888h-55.871c-11.667 0-21.119 9.462-21.119 21.119v71.291c0 11.667 9.451 21.118 21.119 21.118h26.348c6.587 0 12.805-3.074 16.797-8.313 11.059-14.502 27.467-24.722 46.27-27.656zm-3.253-20.859v-2.396l-30.291-33.186h-55.871v71.291h26.348c14.293-18.742 35.511-31.927 59.814-35.709z" fill-rule="evenodd"/></g><g><path clip-rule="evenodd" d="m3257.921 9579.149c0-11.657-9.451-21.119-21.119-21.119h-53.086c-8.354 0-16.328 3.463-22.027 9.562l-28.474 30.46c-3.663 3.914-5.689 9.063-5.689 14.422v37.967c0 11.667 9.451 21.118 21.119 21.118h88.157c11.667 0 21.119-9.451 21.119-21.118zm-21.119 0h-53.086c-2.505 0-4.89 1.038-6.597 2.864l-28.474 30.46v37.967h88.157z" fill-rule="evenodd"/></g></g></g></g></g></g></svg>