<svg enable-background="new 0 0 512 512" viewBox="0 0 512 512" xmlns="http://www.w3.org/2000/svg"><style>path, circle {fill: #006351;}</style><g><path d="m456.538 61.946h-202.536c-10.17 0-18.823 6.596-21.922 15.733h-69.722c-14.315 0-26.038 11.305-26.714 25.456h-29.498c-22.017 0-39.928 17.9-39.928 39.901v3.867h-58.718c-4.143 0-7.5 3.358-7.5 7.5s3.357 7.5 7.5 7.5h58.718v3.839c0 22.017 17.911 39.929 39.928 39.929h29.498c.677 14.135 12.4 25.428 26.714 25.428h69.713c3.091 9.151 11.751 15.761 21.932 15.761h53.873c-1.822 7.656-6.518 15.381-10.789 22.395-6.16 10.116-11.48 18.853-9.155 27.694 5.02 19.32 19.199 20.455 52.398 20.497v55.811h-39.952c-21.173 0-38.398 17.226-38.398 38.399v24.719c0 7.543 6.124 13.68 13.651 13.68h151.881c7.527 0 13.651-6.137 13.651-13.68v-49.778c0-7.355-5.984-13.34-13.34-13.34h-7.835v-47.664c0-4.142-3.357-7.5-7.5-7.5s-7.5 3.358-7.5 7.5v47.664h-49.658v-126.397h49.658v44.092c0 4.142 3.357 7.5 7.5 7.5s7.5-3.358 7.5-7.5v-44.092h36.551c30.582 0 55.462-24.881 55.462-55.464v-73.986c-.001-30.583-24.881-55.464-55.463-55.464zm-30.376 373.108h-149.183v-23.398c0-12.902 10.496-23.399 23.398-23.399h125.785zm-344.944-269.312v-22.706c0-13.73 11.183-24.901 24.928-24.901h29.465v28.769h-22.265c-4.143 0-7.5 3.358-7.5 7.5s3.357 7.5 7.5 7.5h22.265v28.768h-29.465c-13.746-.001-24.928-11.184-24.928-24.93zm69.392 38.637v-99.953c0-6.478 5.27-11.748 11.747-11.748h20.875v123.42h-20.875c-6.477.001-11.747-5.256-11.747-11.719zm95.244 19.333v-52.499c0-4.142-3.357-7.5-7.5-7.5s-7.5 3.358-7.5 7.5v44.886h-32.622v-123.42h32.622v42.022c0 4.142 3.357 7.5 7.5 7.5s7.5-3.358 7.5-7.5v-49.607c0-4.493 3.655-8.148 8.147-8.148h181.004v154.914h-181.003c-4.492 0-8.148-3.655-8.148-8.148zm94.475 78.729c-32.395-.083-35.799-1.254-37.887-9.287-.708-2.693 4.01-10.441 7.455-16.098 5.218-8.568 11.472-18.847 13.262-30.197h17.17zm156.671-111.045c0 22.312-18.151 40.464-40.462 40.464h-6.532v-154.914h6.532c22.311 0 40.462 18.152 40.462 40.464z"/><path d="m323.876 124.967h76.507c4.143 0 7.5-3.358 7.5-7.5s-3.357-7.5-7.5-7.5h-76.507c-4.143 0-7.5 3.358-7.5 7.5s3.357 7.5 7.5 7.5z"/><path d="m323.876 157.935h76.507c4.143 0 7.5-3.358 7.5-7.5s-3.357-7.5-7.5-7.5h-76.507c-4.143 0-7.5 3.358-7.5 7.5s3.357 7.5 7.5 7.5z"/><path d="m407.883 183.402c0-4.142-3.357-7.5-7.5-7.5h-76.507c-4.143 0-7.5 3.358-7.5 7.5s3.357 7.5 7.5 7.5h76.507c4.142 0 7.5-3.358 7.5-7.5z"/></g></svg>