<svg enable-background="new 0 0 64 64" viewBox="0 0 64 64" xmlns="http://www.w3.org/2000/svg"><style>path, circle {fill: #006351;}</style><g><g><path d="m53.998 56.003h-31.994c-.197 0-.391-.059-.555-.168l-12.002-8.008c-.278-.186-.445-.498-.445-.832v-20.992c0-.553.447-1 1-1h3.556l6.701-7.666c.189-.217.465-.342.753-.342h22.986c.234 0 .461.082.641.232l5.721 4.773h3.638c.553 0 1 .447 1 1v32.003c0 .553-.447 1-1 1zm-31.691-2h30.691v-30.003h-3c-.234 0-.461-.082-.641-.232l-5.722-4.772h-22.17l-6.701 7.666c-.189.217-.465.342-.753.342h-3.01v19.456z"/></g><g><path d="m26.002 39c-3.859 0-7-3.141-7-7s3.141-7 7-7 7 3.141 7 7-3.141 7-7 7zm0-12c-2.757 0-5 2.243-5 5s2.243 5 5 5 5-2.243 5-5-2.243-5-5-5z"/></g><g><path d="m26.002 36c-2.206 0-4-1.794-4-4s1.794-4 4-4 4 1.794 4 4-1.794 4-4 4zm0-6c-1.103 0-2 .897-2 2s.897 2 2 2 2-.897 2-2-.898-2-2-2z"/></g><g><path d="m42.002 49c-2.206 0-4-1.794-4-4s1.794-4 4-4 4 1.794 4 4-1.794 4-4 4zm0-6c-1.103 0-2 .897-2 2s.897 2 2 2 2-.897 2-2-.898-2-2-2z"/></g><g><path d="m44.236 44c-.271 0-.54-.109-.736-.324l-13.707-14.937c-.374-.406-.347-1.039.061-1.412.405-.374 1.04-.348 1.412.061l13.707 14.937c.374.406.347 1.039-.061 1.412-.191.176-.433.263-.676.263z"/></g><g><path d="m40.46 48.574c-.174 0-.35-.045-.51-.141l-17.777-10.574c-.476-.282-.631-.896-.349-1.37.282-.476.896-.633 1.37-.349l17.777 10.574c.476.282.631.896.349 1.37-.186.315-.519.49-.86.49z"/></g><g><path d="m4.004 27.997c-.553 0-1-.447-1-1 0-2.206 1.794-4 4-4 .553 0 1 .447 1 1s-.447 1-1 1c-1.103 0-2 .897-2 2 0 .553-.447 1-1 1z"/></g><g><path d="m7.004 49.996c-2.206 0-4-1.794-4-4 0-.553.447-1 1-1s1 .447 1 1c0 1.103.897 2 2 2 .553 0 1 .447 1 1s-.447 1-1 1z"/></g><g><path d="m4.004 46.996c-.553 0-1-.447-1-1v-19.009c0-.553.447-1 1-1s1 .447 1 1v19.009c0 .553-.447 1-1 1z"/></g><g><path d="m7.004 49.996c-.553 0-1-.447-1-1v-25.012c0-.553.447-1 1-1s1 .447 1 1v25.012c0 .553-.447 1-1 1z"/></g><g><path d="m10.002 36.002h-2.998c-.553 0-1-.447-1-1s.447-1 1-1h2.998c.553 0 1 .447 1 1s-.447 1-1 1z"/></g><g><path d="m10.002 39.002h-2.998c-.553 0-1-.447-1-1s.447-1 1-1h2.998c.553 0 1 .447 1 1s-.447 1-1 1z"/></g><g><path d="m4.002 39h-3.002c-.553 0-1-.447-1-1v-2.998c0-.553.447-1 1-1h3.002c.553 0 1 .447 1 1v2.998c0 .553-.447 1-1 1zm-2.002-2h1.002v-.998h-1.002z"/></g><g><path d="m44.002 16h-23.004c-1.654 0-3-1.346-3-3v-2.003c0-1.654 1.346-3 3-3h23.004c1.654 0 3 1.346 3 3v2.003c0 1.654-1.346 3-3 3zm-23.004-6.003c-.552 0-1 .448-1 1v2.003c0 .552.448 1 1 1h23.004c.552 0 1-.448 1-1v-2.003c0-.552-.448-1-1-1z"/></g><g><path d="m25.002 18.995c-.553 0-1-.447-1-1v-2.995c0-.553.447-1 1-1s1 .447 1 1v2.995c0 .553-.447 1-1 1z"/></g><g><path d="m39.998 18.995c-.553 0-1-.447-1-1v-2.995c0-.553.447-1 1-1s1 .447 1 1v2.995c0 .553-.447 1-1 1z"/></g><g><path d="m63 52h-6c-.553 0-1-.447-1-1v-24c0-.553.447-1 1-1h6c.553 0 1 .447 1 1v24c0 .553-.447 1-1 1zm-5-2h4v-22h-4z"/></g><g><path d="m57 49h-3.002c-.553 0-1-.447-1-1s.447-1 1-1h3.002c.553 0 1 .447 1 1s-.447 1-1 1z"/></g><g><path d="m57 31h-3.002c-.553 0-1-.447-1-1s.447-1 1-1h3.002c.553 0 1 .447 1 1s-.447 1-1 1z"/></g></g></svg>