<?xml version="1.0" encoding="iso-8859-1"?>
<!-- Generator: Adobe Illustrator 19.0.0, SVG Export Plug-In . SVG Version: 6.00 Build 0)  -->
<svg version="1.1" id="Capa_1" xmlns="http://www.w3.org/2000/svg" xmlns:xlink="http://www.w3.org/1999/xlink" x="0px" y="0px"
	 viewBox="0 0 480.026 480.026" style="enable-background:new 0 0 480.026 480.026;" xml:space="preserve">
	 <style>path, circle {fill: #006351;}</style>
<g>
	<g>
		<path d="M449.934,385.216c-2.869-7.385-8.619-13.285-15.928-16.344c-7.163-3.03-15.25-3.013-22.4,0.048l-51.872,22.024
			c0.143-0.976,0.234-1.959,0.272-2.944c0-15.464-12.536-28-28-28H269.95c-6.278-0.009-12.469-1.472-18.088-4.272
			C225.9,342.786,197.294,336.034,168.286,336h-20.28c0-4.418-3.582-8-8-8h-64c-4.418,0-8,3.582-8,8h-40v16h40v80h-40v16h40
			c0,4.418,3.582,8,8,8h64c4.418,0,8-3.582,8-8v-3.048l59.728,24.8c32.56,13.298,68.961,13.702,101.808,1.128l123.584-47.128
			c7.321-2.782,13.213-8.397,16.344-15.576C452.702,400.896,452.87,392.621,449.934,385.216z M132.006,440h-48v-96h48V440z
			 M434.798,401.728c-1.413,3.266-4.084,5.825-7.408,7.096l-123.584,47.12c-29.039,11.124-61.223,10.778-90.016-0.968
			l-65.784-27.352V352h20.28c26.526,0.031,52.684,6.206,76.424,18.04c7.839,3.913,16.479,5.953,25.24,5.96h62.056
			c6.627,0.043,11.965,5.45,11.922,12.077c-0.036,5.551-3.875,10.354-9.282,11.611c-1.048,0.096-2.072,0.312-3.136,0.312h-95.504v16
			h95.504c0.168,0,0.328,0,0.496,0c0.16,0,0.312-0.048,0.48-0.048c6.349-0.102,12.619-1.431,18.464-3.912l66.888-28.392
			c3.186-1.36,6.79-1.36,9.976,0c3.314,1.399,5.914,4.088,7.2,7.448C436.373,394.525,436.295,398.357,434.798,401.728z"/>
	</g>
</g>
<g>
	<g>
		<path d="M444.006,136h-27.864c-3.271-13.71-8.684-26.817-16.04-38.84l19.672-19.672c3.123-3.124,3.123-8.188,0-11.312
			L385.83,32.232c-3.179-2.994-8.141-2.994-11.32,0l-19.672,19.68c-12.02-7.357-25.125-12.773-38.832-16.048V8c0-4.418-3.582-8-8-8
			h-48c-4.418,0-8,3.582-8,8v27.864c-13.707,3.275-26.812,8.691-38.832,16.048l-19.672-19.68c-3.122-3.126-8.188-3.129-11.314-0.006
			c-0.002,0.002-0.004,0.004-0.006,0.006l-33.944,33.944c-3.123,3.124-3.123,8.188,0,11.312L167.91,97.16
			c-7.342,12.025-12.741,25.133-16,38.84h-27.904c-4.418,0-8,3.582-8,8v48c0,4.418,3.582,8,8,8h27.864
			c3.259,13.707,8.658,26.815,16,38.84l-19.672,19.672c-3.123,3.124-3.123,8.188,0,11.312l33.944,33.944
			c3.178,2.998,8.142,2.998,11.32,0l19.672-19.68c12.033,7.361,25.151,12.777,38.872,16.048V328c0,4.418,3.582,8,8,8h48
			c4.418,0,8-3.582,8-8v-27.864c13.707-3.275,26.812-8.691,38.832-16.048l19.672,19.68c3.122,3.126,8.188,3.129,11.314,0.006
			c0.002-0.002,0.004-0.004,0.006-0.006l33.944-33.944c3.123-3.124,3.123-8.188,0-11.312l-19.672-19.672
			c7.356-12.023,12.769-25.13,16.04-38.84h27.864c4.418,0,8-3.582,8-8v-48C452.006,139.582,448.424,136,444.006,136z
			 M436.006,183.984h-26.328c-3.84,0.001-7.138,2.731-7.856,6.504c-3.019,16.094-9.339,31.389-18.56,44.92
			c-2.164,3.176-1.764,7.442,0.952,10.16l18.592,18.584L380.174,286.8l-18.568-18.592c-2.717-2.712-6.978-3.112-10.152-0.952
			c-13.537,9.216-28.833,15.535-44.928,18.56c-3.773,0.718-6.503,4.016-6.504,7.856V320h-32.016v-26.328
			c-0.001-3.84-2.731-7.138-6.504-7.856c-16.095-3.025-31.391-9.344-44.928-18.56c-3.174-2.16-7.435-1.76-10.152,0.952
			L187.838,286.8l-22.632-22.632l18.592-18.568c2.716-2.718,3.116-6.984,0.952-10.16c-9.222-13.531-15.541-28.826-18.56-44.92
			c-0.711-3.779-4.011-6.517-7.856-6.52h-26.328v-32h26.328c3.84-0.001,7.138-2.731,7.856-6.504
			c3.019-16.094,9.338-31.389,18.56-44.92c2.164-3.176,1.764-7.442-0.952-10.16l-18.592-18.584L187.838,49.2l18.568,18.592
			c2.717,2.712,6.978,3.112,10.152,0.952c13.537-9.216,28.833-15.535,44.928-18.56c3.779-0.711,6.517-4.011,6.52-7.856V16h32v26.328
			c0.001,3.84,2.731,7.138,6.504,7.856c16.095,3.025,31.391,9.344,44.928,18.56c3.174,2.16,7.435,1.76,10.152-0.952L380.174,49.2
			l22.632,22.632L384.214,90.4c-2.716,2.718-3.116,6.984-0.952,10.16c9.221,13.531,15.541,28.826,18.56,44.92
			c0.718,3.773,4.016,6.503,7.856,6.504h26.328V183.984z"/>
	</g>
</g>
<g>
	<g>
		<path d="M284.006,120c-26.51,0-48,21.49-48,48c0.026,26.499,21.501,47.974,48,48c26.51,0,48-21.49,48-48
			C332.006,141.49,310.515,120,284.006,120z M284.006,200c-17.673,0-32-14.327-32-32s14.327-32,32-32c17.673,0,32,14.327,32,32
			S301.679,200,284.006,200z"/>
	</g>
</g>
<g>
	<g>
		<path d="M284.006,72c-53.019,0-96,42.981-96,96c0.057,52.996,43.004,95.943,96,96c53.019,0,96-42.981,96-96S337.025,72,284.006,72
			z M284.006,248c-44.183,0-80-35.817-80-80c0.049-44.163,35.837-79.951,80-80c44.183,0,80,35.817,80,80S328.188,248,284.006,248z"
			/>
	</g>
</g>
<g>
</g>
<g>
</g>
<g>
</g>
<g>
</g>
<g>
</g>
<g>
</g>
<g>
</g>
<g>
</g>
<g>
</g>
<g>
</g>
<g>
</g>
<g>
</g>
<g>
</g>
<g>
</g>
<g>
</g>
</svg>
