<?xml version="1.0" encoding="iso-8859-1"?>
<!-- Generator: Adobe Illustrator 19.0.0, SVG Export Plug-In . SVG Version: 6.00 Build 0)  -->
<svg version="1.1" id="Capa_1" xmlns="http://www.w3.org/2000/svg" xmlns:xlink="http://www.w3.org/1999/xlink" x="0px" y="0px"
	 viewBox="0 0 480.115 480.115" style="enable-background:new 0 0 480.115 480.115;" xml:space="preserve">
	 <style>path, circle {fill: #006351;}</style>
<g>
	<g>
		<path d="M272.61,147.443l16.08-41.8c22.998-26.841,19.883-67.244-6.958-90.242c-26.841-22.998-67.244-19.883-90.242,6.958
			c-20.533,23.964-20.533,59.319,0,83.284l16.08,41.808C116.58,165.357,57.334,253.635,75.24,344.625
			c15.5,78.761,84.578,135.536,164.85,135.49c92.74,0.031,167.945-75.124,167.976-167.864
			C408.093,232.006,351.341,162.957,272.61,147.443z M192.09,64.115c0.026-26.499,21.501-47.974,48-48c26.51,0,48,21.49,48,48
			s-21.49,48-48,48C213.58,112.115,192.09,90.625,192.09,64.115z M280.09,328.115c-13.255,0-24,10.745-24,24v24
			c0,8.837-7.163,16-16,16s-16-7.163-16-16v-24c0-13.255-10.745-24-24-24s-24,10.745-24,24v24c0,8.837-7.163,16-16,16
			s-16-7.163-16-16v-120c0-8.837,7.163-16,16-16s16,7.163,16,16v24c0,13.255,10.745,24,24,24s24-10.745,24-24v-6.24
			c9.044,8.32,22.956,8.32,32,0v6.24c0,13.255,10.745,24,24,24s24-10.745,24-24v-24c0-8.837,7.163-16,16-16s16,7.163,16,16v120
			c0,8.837-7.163,16-16,16s-16-7.163-16-16v-24C304.09,338.86,293.345,328.115,280.09,328.115z M248.09,166.627v89.488
			c0,4.418-3.582,8-8,8s-8-3.582-8-8v-89.488l-16.728-43.488c15.818,6.635,33.638,6.635,49.456,0L248.09,166.627z M213.386,461.868
			C130.744,447.122,75.704,368.174,90.45,285.532c11.185-62.683,60.253-111.752,122.937-122.937v-0.016l2.704,7.024v65.6
			c-5.102,5.778-7.943,13.205-8,20.912v24c0,4.418-3.582,8-8,8s-8-3.582-8-8v-24c0-17.673-14.327-32-32-32s-32,14.327-32,32v120
			c0,17.673,14.327,32,32,32s32-14.327,32-32v-24c0-4.418,3.582-8,8-8s8,3.582,8,8v24c0,17.673,14.327,32,32,32
			c17.673,0,32-14.327,32-32v-24c0-4.418,3.582-8,8-8s8,3.582,8,8v24c0,17.673,14.327,32,32,32c17.673,0,32-14.327,32-32v-120
			c0-17.673-14.327-32-32-32c-17.673,0-32,14.327-32,32v24c0,4.418-3.582,8-8,8s-8-3.582-8-8v-24c-0.059-7.705-2.9-15.128-8-20.904
			v-65.6l2.696-7.016c82.642,14.746,137.683,93.695,122.937,176.337C374.977,421.574,296.028,476.614,213.386,461.868z"/>
	</g>
</g>
<g>
</g>
<g>
</g>
<g>
</g>
<g>
</g>
<g>
</g>
<g>
</g>
<g>
</g>
<g>
</g>
<g>
</g>
<g>
</g>
<g>
</g>
<g>
</g>
<g>
</g>
<g>
</g>
<g>
</g>
</svg>
