<svg enable-background="new 0 0 511.996 511.996" viewBox="0 0 511.996 511.996" xmlns="http://www.w3.org/2000/svg"><style>path, circle {fill: #006351;}</style><path d="m494.561 155.22c-14.477-35.485-48.794-58.8-87.422-59.396-3.704-.061-7.466-.091-11.183-.091-72.49 0-143.452 11.05-210.915 32.843-49.899 16.117-97.056 37.761-140.159 64.331-29.271 18.03-46.027 49.346-44.822 83.769 1.206 34.427 20.12 64.507 50.596 80.461 9.012 4.721 18.879 9.385 29.326 13.86 3.807 1.63 8.216-.132 9.848-3.94 1.631-3.808-.133-8.216-3.94-9.848-10.091-4.323-19.604-8.818-28.275-13.36-25.638-13.422-41.549-38.729-42.563-67.698-1.015-28.962 13.078-55.307 37.7-70.473 42.083-25.941 88.143-47.079 136.9-62.828 65.971-21.311 135.382-32.117 206.304-32.117 3.635 0 7.314.03 10.944.089 32.613.503 61.57 20.154 73.77 50.06 10.833 26.599 16.326 58.057 16.326 93.5 0 34.004-14.616 65.042-42.269 89.759-23.488 21.003-56.126 37.289-94.383 47.095-25.601 6.559-53.343 10.026-80.229 10.026-7.937 0-15.878-.302-23.606-.898-43.515-3.342-95.676-15.123-143.107-32.323-3.893-1.412-8.195.601-9.607 4.494-1.412 3.894.6 8.195 4.494 9.607 48.654 17.643 102.26 29.736 147.07 33.177 8.107.625 16.437.942 24.757.942 28.123 0 57.152-3.629 83.952-10.495 40.578-10.402 75.385-27.845 100.656-50.443 30.926-27.642 47.271-62.547 47.271-100.942.001-37.391-5.864-70.753-17.434-99.161z"/><path d="m280.327 392.187c26.094 0 52.593-3.302 77.76-9.754 81.291-20.826 129.823-68.695 129.823-128.048 0-34.267-5.267-64.569-15.653-90.067-10.82-26.534-36.529-43.966-65.496-44.411-72.356-1.134-143.145 9.083-210.408 30.341-49.495 15.642-96.205 36.893-138.833 63.162-21.806 13.438-34.289 36.772-33.39 62.421.899 25.662 14.993 48.079 37.701 59.965 53.394 27.942 133.737 50.769 195.379 55.511 7.642.588 15.359.88 23.117.88zm158.348-65.999c-18.637 16.66-44.242 30.025-74.46 38.976 2.466-25.599 14.287-50.379 33.287-69.208 20.315-20.131 46.737-31.968 75.089-33.811-1.991 24.167-13.374 45.68-33.916 64.043zm-399.555-50.882c-.708-20.189 9.112-38.554 26.268-49.126 41.58-25.623 87.163-46.358 135.483-61.629 62.462-19.741 128.046-29.728 195.126-29.728 3.502 0 7.021.027 10.53.082 22.945.353 43.292 14.121 51.837 35.074 8.918 21.893 13.764 47.814 14.45 77.125-32.421 1.814-62.675 15.21-85.872 38.196-22.836 22.631-36.513 52.937-38.067 83.947-29.48 6.943-60.651 9.4-90.517 7.104-59.833-4.603-137.788-26.745-189.574-53.845-17.866-9.352-28.956-26.997-29.664-47.2z"/><path d="m100.151 231.505c-21.802 0-39.54 17.738-39.54 39.54 0 21.803 17.738 39.541 39.54 39.541s39.54-17.738 39.54-39.541-17.738-39.54-39.54-39.54zm0 64.08c-13.531 0-24.54-11.009-24.54-24.541 0-13.531 11.009-24.54 24.54-24.54s24.54 11.009 24.54 24.54c0 13.532-11.009 24.541-24.54 24.541z"/><path d="m319.758 252.78c0-45.3-36.854-82.155-82.154-82.155s-82.155 36.854-82.155 82.155 36.854 82.155 82.155 82.155c45.3 0 82.154-36.854 82.154-82.155zm-82.154 67.155c-37.029 0-67.155-30.125-67.155-67.155s30.125-67.155 67.155-67.155 67.154 30.125 67.154 67.155-30.125 67.155-67.154 67.155z"/><path d="m237.604 201.905c-28.053 0-50.876 22.823-50.876 50.875 0 28.053 22.823 50.876 50.876 50.876s50.876-22.823 50.876-50.876c0-28.052-22.823-50.875-50.876-50.875zm0 86.751c-19.782 0-35.876-16.094-35.876-35.876s16.094-35.875 35.876-35.875 35.876 16.094 35.876 35.875c0 19.783-16.094 35.876-35.876 35.876z"/><path d="m387.227 252.913c19.125 0 36.755-9.581 47.162-25.629 2.254-3.476 1.263-8.12-2.212-10.374-3.478-2.253-8.119-1.262-10.374 2.212-7.63 11.766-20.556 18.791-34.576 18.791-22.718 0-41.2-18.482-41.2-41.2s18.482-41.2 41.2-41.2c22.213 0 40.295 17.37 41.165 39.544.162 4.139 3.631 7.35 7.788 7.2 4.139-.162 7.362-3.649 7.2-7.788-1.187-30.256-25.853-53.956-56.153-53.956-30.989 0-56.2 25.211-56.2 56.2s25.211 56.2 56.2 56.2z"/><path d="m360.681 196.712c0 14.639 11.91 26.549 26.549 26.549s26.549-11.91 26.549-26.549-11.91-26.549-26.549-26.549-26.549 11.91-26.549 26.549zm38.098 0c0 6.368-5.181 11.549-11.549 11.549s-11.549-5.181-11.549-11.549 5.181-11.549 11.549-11.549 11.549 5.181 11.549 11.549z"/></svg>