<svg width="44" height="40" enable-background="new 0 0 512 512" viewBox="0 0 512 512" xmlns="http://www.w3.org/2000/svg"><g><path d="m497 341h-17.58c1.665-4.695 2.58-9.742 2.58-15v-240c0-24.813-20.187-45-45-45h-362c-24.813 0-45 20.187-45 45v240c0 5.258.915 10.305 2.58 15h-17.58c-8.284 0-15 6.716-15 15v60c0 30.327 24.673 55 55 55h402c30.327 0 55-24.673 55-55v-60c0-8.284-6.716-15-15-15zm-437-15v-240c0-8.271 6.729-15 15-15h362c8.271 0 15 6.729 15 15v240c0 8.271-6.729 15-15 15h-362c-8.271 0-15-6.729-15-15zm247.703 45-4 20h-95.406l-4-20zm174.297 45c0 13.785-11.215 25-25 25h-402c-13.785 0-25-11.215-25-25v-45h143.703l7.588 37.942c1.402 7.011 7.559 12.058 14.709 12.058h120c7.15 0 13.307-5.047 14.708-12.058l7.589-37.942h143.703z" fill="#006351"/><circle cx="256" cy="256" r="15" fill="#006351"/><path d="m256 181c-20.033 0-38.868 7.801-53.033 21.967-5.857 5.858-5.857 15.355 0 21.213 5.857 5.857 15.355 5.858 21.213 0 8.5-8.499 19.8-13.18 31.82-13.18s23.32 4.681 31.819 13.18c2.93 2.929 6.768 4.394 10.607 4.394 3.838 0 7.678-1.465 10.606-4.393 5.858-5.858 5.858-15.355 0-21.213-14.164-14.167-32.999-21.968-53.032-21.968z" fill="#006351"/><path d="m330.247 181.753c2.929 2.929 6.768 4.394 10.606 4.394s7.678-1.464 10.606-4.394c5.858-5.858 5.858-15.355 0-21.213-52.637-52.637-138.282-52.637-190.919 0-5.858 5.857-5.858 15.355 0 21.213 5.857 5.858 15.354 5.858 21.213 0 40.94-40.938 107.554-40.938 148.494 0z" fill="#006351"/></g></svg>
