<svg width="38" height="38" enable-background="new 0 0 512.375 512.375" viewBox="0 0 512.375 512.375" xmlns="http://www.w3.org/2000/svg"><path d="m466.169 11.789c-51.065-29.484-114.659-.726-130.379 53.647-9.303 32.183-35.621 63.627-67.215 80.431-29.997-43.104-50.949-88.115-62.503-116.024-8.943-21.6-33.437-32.687-55.766-25.239-24.74 8.253-37.378 35.641-27.467 59.694 11.846 28.75 32.541 73.503 62.448 119.091-49.802-6.048-100.522 10.699-136.919 47.096-63.78 64.108-64.943 168.283.054 233.614 64.669 64.341 168.824 64.405 233.584-.027 36.376-36.376 53.119-87.089 47.071-136.887 45.591 29.911 90.348 50.608 119.1 62.455 23.741 9.782 51.355-2.448 59.697-27.477 7.441-22.327-3.663-46.811-25.282-55.741-27.862-11.508-72.835-32.419-115.991-62.488 33.602-62.781 89.178-59.692 119.283-89.796 41.515-41.514 33.384-111.69-19.715-142.349zm-247.078 217.898c19.661 24.093 39.566 44.004 63.685 63.688l-22.777 22.777-63.686-63.687zm41.729 213.145c-52.652 52.385-138.443 52.528-191.185.054-52.457-52.726-52.457-138.516-.028-191.215 32.186-32.186 78.111-45.58 121.993-36.92l-27.107 27.107c-5.858 5.858-5.858 15.355 0 21.213l84.899 84.901c5.854 5.854 15.356 5.858 21.213 0l27.107-27.108c8.662 43.881-4.729 89.803-36.892 121.968zm218.593-90.156c-2.773 8.318-11.818 12.519-19.807 9.226-154.917-63.833-244.562-152.57-309.03-309.033-3.286-7.977.897-17.029 9.223-19.806 7.411-2.473 15.589 1.096 18.554 8.256 61.773 149.207 143.91 231.336 292.786 292.832 7.121 2.941 10.756 11.078 8.274 18.525zm-14.742-219.751c-22.376 22.374-82.992 24.766-122.316 92.893-21.58-17.324-38.489-34.263-55.667-55.683 37.111-21.125 66.7-57.548 77.923-96.367 10.425-36.059 52.846-55.462 86.559-35.998 36.018 20.796 41.046 67.611 13.501 95.155z" fill="#006351"/></svg>
