<?xml version="1.0" encoding="iso-8859-1"?>
<!-- Generator: Adobe Illustrator 19.0.0, SVG Export Plug-In . SVG Version: 6.00 Build 0)  -->
<svg version="1.1" id="Capa_1" xmlns="http://www.w3.org/2000/svg" xmlns:xlink="http://www.w3.org/1999/xlink" x="0px" y="0px"
	 viewBox="0 0 512 512" style="enable-background:new 0 0 512 512;" xml:space="preserve">
	 <style>path, circle {fill: #006351;}</style>
<g>
	<g>
		<g>
			<path d="M103.837,79.65l-5.499-13.944c-15.41,6.077-27.601,13.536-36.234,22.17l10.599,10.598
				C79.875,91.303,90.35,84.969,103.837,79.65z"/>
			
				<rect x="170.065" y="248.507" transform="matrix(-0.7071 -0.7071 0.7071 -0.7071 168.74 581.8977)" width="69.639" height="14.99"/>
			<path d="M447.378,106.533c7.172,7.171,13.506,17.646,18.826,31.134l13.944-5.5c-6.077-15.41-13.536-27.601-22.169-36.234
				L447.378,106.533z"/>
			<path d="M140.62,360.27c-12.01,0-23.301,4.678-31.793,13.169c-17.53,17.531-17.53,46.056,0,63.587
				c8.492,8.491,19.783,13.169,31.793,13.169s23.301-4.678,31.793-13.169c17.53-17.531,17.53-46.056,0-63.587
				C163.92,364.948,152.63,360.27,140.62,360.27z M161.813,426.426c-5.662,5.661-13.187,8.779-21.194,8.779
				c-8.007,0-15.533-3.118-21.194-8.779c-11.686-11.685-11.686-30.701,0-42.386c5.662-5.661,13.187-8.779,21.194-8.779
				c8.007,0,15.533,3.118,21.194,8.779C173.499,395.726,173.499,414.74,161.813,426.426z"/>
			<path d="M507.985,157.881c-3.857-3.857-6.321-8.971-7.127-14.787c-3.156-22.77-15.174-45.591-33.841-64.257
				c-18.665-18.666-41.486-30.684-64.258-33.841c-5.817-0.807-10.931-3.272-14.785-7.128c-2.589-2.59-6.165-4.016-10.063-4.016
				c-4.937,0-10.017,2.249-13.939,6.169L258.108,145.883l27.576,27.576l18.849-4.215l6.117,6.117L256.011,230l-54.639-54.639
				l6.117-6.117l18.849,4.215l27.576-27.576L148.05,40.02c-3.921-3.92-9.001-6.169-13.938-6.169c-3.899,0-7.473,1.426-10.063,4.017
				c-3.855,3.856-8.968,6.32-14.785,7.127c-22.772,3.156-45.592,15.174-64.258,33.84c-18.667,18.668-30.685,41.489-33.841,64.258
				c-0.807,5.816-3.271,10.931-7.127,14.786c-6.126,6.126-5.181,16.669,2.153,24.002l13.005,13l9.26,9.26l83.601,83.601
				l27.576-27.576l-4.215-18.849l6.116-6.116l54.638,54.639l-28.152,28.152c-8.582,8.582-19.928,13.718-31.946,14.461
				c-17.745,1.097-34.445,8.628-47.023,21.207C71.23,371.482,63.93,396.819,69.52,421.441c2.576,11.35,7.927,22.047,15.472,30.934
				l8.038,8.073l0.449,0.413c8.887,7.545,19.584,12.896,30.934,15.472c5.312,1.206,10.772,1.818,16.228,1.818
				c0.001,0,0.001,0,0.002,0c19.475,0,37.783-7.581,51.548-21.346c12.579-12.579,20.11-29.279,21.207-47.023
				c0.742-12.018,5.879-23.363,14.461-31.946l28.151-28.151l28.151,28.151c8.583,8.582,13.72,19.928,14.464,31.946
				c1.097,17.744,8.628,34.444,21.206,47.023c13.765,13.764,32.074,21.346,51.551,21.346c0.001,0,0.001,0,0.002,0
				c5.454,0,10.915-0.612,16.226-1.818c11.349-2.575,22.045-7.926,30.934-15.471l8.073-8.038l0.414-0.449
				c7.544-8.887,12.896-19.585,15.471-30.933c5.591-24.622-1.71-49.961-19.528-67.78c-12.579-12.578-29.279-20.109-47.023-21.206
				c-12.019-0.742-23.364-5.879-31.946-14.461l-28.152-28.152l54.639-54.639l6.117,6.117l-4.215,18.849l27.576,27.576l73.558-73.559
				l19.303-19.302l13.001-13.001c3.185-3.184,5.299-7.182,5.953-11.259C512.571,165.726,511.186,161.081,507.985,157.881z
				 M43.31,197.8l-2.917-2.917L62.174,173.1l-10.599-10.6l-21.783,21.783l-13.002-13c-1.3-1.3-1.716-2.594-1.774-3.186
				c5.966-6.133,9.766-14.054,10.998-22.944c2.671-19.272,13.456-39.58,29.592-55.715c16.134-16.134,36.442-26.92,55.716-29.593
				c8.89-1.232,16.81-5.03,22.941-10.994c0.619,0.059,1.898,0.479,3.189,1.771l13.002,13.002l-90.166,90.165l10.599,10.6
				l90.167-90.167l6.581,6.581L46.974,201.464L43.31,197.8z M130.922,224.594l0.009,0.009l-11.944,11.944l4.215,18.849
				l-11.149,11.149l-54.481-54.481L178.233,91.403l54.482,54.48l-11.149,11.149l-18.85-4.215l-11.944,11.944l-0.009-0.009
				L130.922,224.594z M217.26,367.238c-11.17,11.17-17.855,25.95-18.824,41.62c-0.871,14.093-6.854,27.356-16.845,37.348
				c-10.935,10.935-25.478,16.957-40.951,16.956c-4.342,0-8.685-0.486-12.911-1.445c-8.91-2.024-17.314-6.201-24.324-12.091
				l-7.178-7.178c-5.888-7.01-10.067-15.415-12.09-24.325c-4.443-19.57,1.355-39.705,15.511-53.861
				c9.991-9.991,23.255-15.973,37.348-16.845c15.67-0.968,30.451-7.653,41.62-18.823l28.151-28.152l22.563,22.563l-17.882,17.883
				l10.599,10.598l17.882-17.883l5.481,5.481L217.26,367.238z M333.406,328.594c11.171,11.17,25.952,17.854,41.623,18.823
				c14.093,0.871,27.357,6.854,37.347,16.845c14.156,14.156,19.954,34.289,15.511,53.861c-2.024,8.909-6.201,17.314-12.091,24.324
				l-7.178,7.178c-7.01,5.89-15.415,10.068-24.324,12.091c-4.226,0.959-8.568,1.445-12.908,1.445c0,0-0.001,0-0.002,0
				c-15.474,0-30.018-6.023-40.951-16.957c-9.991-9.99-15.973-23.254-16.845-37.347c-0.969-15.67-7.654-30.451-18.824-41.621
				l-80.387-80.387l-7.607-7.607l-54.639-54.638l38.644-38.644L333.406,328.594z M305.254,279.241l-5.48-5.48l16.541-16.541
				l-10.6-10.6l-16.541,16.541l-13.897-13.897l-8.665-8.665l54.639-54.639l38.643,38.644L305.254,279.241z M399.969,266.545
				l-11.149-11.15l4.215-18.849l-11.944-11.944l0.009-0.009l-59.842-59.843l-0.009,0.009l-11.944-11.944l-18.849,4.215
				l-11.149-11.149l54.481-54.48L454.45,212.063L399.969,266.545z M495.23,171.281l-13.001,13.002l-90.166-90.167l-10.6,10.6
				l90.167,90.166l-6.581,6.582L344.389,80.804l4.83-4.83l1.752-1.752l21.783,21.783l10.6-10.6L361.57,63.623l13.002-13.001
				c1.255-1.256,2.498-1.688,3.199-1.763c6.128,5.958,14.045,9.754,22.929,10.985c19.275,2.672,39.583,13.457,55.716,29.593
				c16.135,16.135,26.921,36.443,29.594,55.715c1.231,8.889,5.03,16.81,10.997,22.944
				C496.949,168.686,496.533,169.98,495.23,171.281z"/>
			<path d="M371.403,450.196c12.009,0,23.301-4.678,31.793-13.169c8.491-8.492,13.169-19.784,13.169-31.793
				s-4.678-23.301-13.169-31.793c-8.492-8.491-19.784-13.169-31.793-13.169s-23.301,4.678-31.793,13.169
				c-8.491,8.492-13.169,19.784-13.169,31.793s4.678,23.301,13.169,31.793C348.102,445.518,359.394,450.196,371.403,450.196z
				 M350.21,384.04c5.66-5.661,13.187-8.779,21.193-8.779c8.006,0,15.533,3.118,21.193,8.779c5.661,5.66,8.779,13.187,8.779,21.193
				c0,8.006-3.118,15.533-8.779,21.193c-5.66,5.661-13.187,8.779-21.193,8.779c-8.006,0-15.533-3.118-21.193-8.779
				c-5.661-5.66-8.779-13.187-8.779-21.193C341.431,397.228,344.548,389.701,350.21,384.04z"/>
		</g>
	</g>
</g>
<g>
</g>
<g>
</g>
<g>
</g>
<g>
</g>
<g>
</g>
<g>
</g>
<g>
</g>
<g>
</g>
<g>
</g>
<g>
</g>
<g>
</g>
<g>
</g>
<g>
</g>
<g>
</g>
<g>
</g>
</svg>
