<svg xmlns="http://www.w3.org/2000/svg" viewBox="0 0 64 64"><style>path, circle {fill: #006351;}</style><g id="Tire"><path d="M21,60c-6.4951,0-10-14.4263-10-28S14.5049,4,21,4,31,18.4263,31,32,27.4951,60,21,60ZM21,6c-3.7842,0-8,10.6777-8,26s4.2158,26,8,26,8-10.6777,8-26S24.7842,6,21,6Z"/><path d="M43,60H21a1,1,0,0,1,0-2H43c3.7842,0,8-10.6777,8-26S46.7842,6,43,6H21a1,1,0,0,1,0-2H43c6.4951,0,10,14.4263,10,28S49.4951,60,43,60Z"/><path d="M21,49c-3.8076,0-4-14.1611-4-17s.1924-17,4-17,4,14.1611,4,17S24.8076,49,21,49Zm0-31.8467c-.7676,1.1187-2,6.13-2,14.8467s1.2324,13.728,2,14.8467c.7676-1.1187,2-6.13,2-14.8467S21.7676,18.272,21,17.1533Z"/><path d="M48,14a1.0005,1.0005,0,0,1-.4473-.1055L44,12.1182l-3.5527,1.7763a1.0008,1.0008,0,0,1-.8946,0L36,12.1182l-3.5527,1.7763a1.0008,1.0008,0,0,1-.8946,0L27.998,12.1172l-.6835.3389a1,1,0,0,1-.8887-1.792l1.13-.56a.9979.9979,0,0,1,.8916.0015L32,11.8818l3.5527-1.7763a1.0008,1.0008,0,0,1,.8946,0L40,11.8818l3.5527-1.7763a1.0008,1.0008,0,0,1,.8946,0L48,11.8818l.7324-.3662a1,1,0,0,1,.8946,1.7891l-1.18.59A1.0005,1.0005,0,0,1,48,14Z"/><path d="M32,22a1.0053,1.0053,0,0,1-.4463-.105l-3.03-1.51a1,1,0,1,1,.8926-1.79l2.583,1.2871,3.5537-1.7768a1.0008,1.0008,0,0,1,.8946,0L40,19.8818l3.5527-1.7763a1.0008,1.0008,0,0,1,.8946,0L48,19.8818l2.5332-1.2666a1,1,0,1,1,.8945,1.7891l-2.98,1.49a1.0008,1.0008,0,0,1-.8946,0L44,20.1182l-3.5527,1.7763a1.0008,1.0008,0,0,1-.8946,0L36,20.1182l-3.5527,1.7763A1.0005,1.0005,0,0,1,32,22Z"/><path d="M48,30a1.0005,1.0005,0,0,1-.4473-.1055L44,28.1182l-3.5527,1.7763a1.0008,1.0008,0,0,1-.8946,0L36,28.1182l-3.5527,1.7763a1.0008,1.0008,0,0,1-.8946,0l-2.1-1.05a1,1,0,0,1,.8946-1.789L32,27.8818l3.5527-1.7763a1.0008,1.0008,0,0,1,.8946,0L40,27.8818l3.5527-1.7763a1.0008,1.0008,0,0,1,.8946,0l3.5517,1.7763,3.4024-1.706a1,1,0,0,1,.8965,1.7881l-3.85,1.93A.9979.9979,0,0,1,48,30Z"/><path d="M48,38a1.0005,1.0005,0,0,1-.4473-.1055L44,36.1182l-3.5527,1.7763a1.0008,1.0008,0,0,1-.8946,0L36,36.1182l-3.5527,1.7763a1.0051,1.0051,0,0,1-.8965-.0009l-2.09-1.05a1,1,0,0,1,.8985-1.7872l1.6416.8247,3.5517-1.7758a1.0008,1.0008,0,0,1,.8946,0L40,35.8818l3.5527-1.7763a1.0008,1.0008,0,0,1,.8946,0L48,35.8818l3.4932-1.7465a1,1,0,1,1,.8945,1.789l-3.94,1.97A1.0005,1.0005,0,0,1,48,38Z"/><path d="M48,46a1.0005,1.0005,0,0,1-.4473-.1055L44,44.1182l-3.5527,1.7763a1.0008,1.0008,0,0,1-.8946,0L36,44.1182l-3.5527,1.7763a1.005,1.005,0,0,1-.8936.0005l-2.87-1.43a1,1,0,1,1,.8926-1.79l2.4228,1.2075,3.5537-1.7768a1.0008,1.0008,0,0,1,.8946,0L40,43.8818l3.5527-1.7763a1.0008,1.0008,0,0,1,.8946,0l3.5517,1.7763,2.7031-1.3559a1,1,0,0,1,.8965,1.7881l-3.15,1.58A.9979.9979,0,0,1,48,46Z"/><path d="M40,54a1.0005,1.0005,0,0,1-.4473-.1055L36,52.1182l-3.5527,1.7763a1.0008,1.0008,0,0,1-.8946,0L28,52.1182l-.293.1464a1,1,0,1,1-.8945-1.789l.74-.37a1.0008,1.0008,0,0,1,.8946,0L32,51.8818l3.5527-1.7763a1.0008,1.0008,0,0,1,.8946,0L40,51.8818l3.5527-1.7763a1.0008,1.0008,0,0,1,.8946,0l3.55,1.7749.36-.1826a1,1,0,0,1,.9043,1.7841l-.81.41a.9992.9992,0,0,1-.8994.0024L44,52.1182l-3.5527,1.7763A1.0005,1.0005,0,0,1,40,54Z"/></g></svg>