<svg version="1.1" xmlns="http://www.w3.org/2000/svg" xmlns:xlink="http://www.w3.org/1999/xlink" x="0px" y="0px" viewBox="0 0 480 480" style="enable-background:new 0 0 480 480;" xml:space="preserve"><style>path, circle {fill: #006351;}</style><g><g><path d="M456,144c13.255,0,24-10.745,24-24v-16c0-13.255-10.745-24-24-24h-96c-13.255,0-24,10.745-24,24v16c0,13.255,10.745,24,24,24h24v37.784L363.472,216h-98.888l-110.4-15.776L103.2,178.4L97.44,144H120c13.255,0,24-10.745,24-24v-16c0-13.255-10.745-24-24-24H24C10.745,80,0,90.745,0,104v16c0,13.255,10.745,24,24,24h22.56l-6.448,38.688c-0.012,0.205-0.012,0.411,0,0.616c-0.049,0.23-0.087,0.462-0.112,0.696v112c0.036,0.234,0.084,0.467,0.144,0.696c-0.012,0.205-0.012,0.411,0,0.616L46.56,336H24c-13.255,0-24,10.745-24,24v16c0,13.255,10.745,24,24,24h96c13.255,0,24-10.745,24-24v-16c0-13.255-10.745-24-24-24H97.44l5.728-34.4l50.992-21.848L264.584,264h98.888L384,298.216V336h-24c-13.255,0-24,10.745-24,24v16c0,13.255,10.745,24,24,24h96c13.255,0,24-10.745,24-24v-16c0-13.255-10.745-24-24-24h-24V144H456z M24,128c-4.418,0-8-3.582-8-8v-16c0-4.418,3.582-8,8-8h96c4.418,0,8,3.582,8,8v16c0,4.418-3.582,8-8,8H24z M86.552,176H57.448l5.328-32h18.448L86.552,176z M120,352c4.418,0,8,3.582,8,8v16c0,4.418-3.582,8-8,8H24c-4.418,0-8-3.582-8-8v-16c0-4.418,3.582-8,8-8H120z M57.448,304h29.104l-5.328,32H62.776L57.448,304z M144,266.728L94.4,288H56v-96h38.4l49.6,21.272V266.728z M256,249.064l-96,13.712v-45.552l96,13.712V249.064z M360,248h-88v-16h88V248z M376,253.784v-27.568L396.528,192H416v96h-19.472L376,253.784z M400,176v-32h16v32H400z M416,304v32h-16v-32H416z M456,352c4.418,0,8,3.582,8,8v16c0,4.418-3.582,8-8,8h-96c-4.418,0-8-3.582-8-8v-16c0-4.418,3.582-8,8-8H456z M360,128c-4.418,0-8-3.582-8-8v-16c0-4.418,3.582-8,8-8h96c4.418,0,8,3.582,8,8v16c0,4.418-3.582,8-8,8H360z"/></g></g></svg>